<svg width="769" height="792" viewBox="0 0 769 792" fill="none" xmlns="http://www.w3.org/2000/svg">
<g clip-path="url(#clip0_404_7055)">
<path d="M401.93 630.73C401.93 647.23 393.8 660.73 383.87 660.73C373.94 660.73 365.81 647.23 365.81 630.73V508.77C365.81 492.27 373.94 478.77 383.87 478.77C393.8 478.77 401.93 492.27 401.93 508.77V630.73Z" fill="white"/>
<path d="M558.95 193.65C558.95 147.37 484.56 93.5 432.83 60.93C406.47 44.33 384.18 16.15 384.18 16.15C384.18 16.15 361.91 44.47 335.23 61.26C283.41 93.89 209.41 147.37 209.41 193.65C209.41 252.01 257.91 302.27 317.26 324.89C321.97 338.11 325.45 354.16 325.45 372.77C325.45 438.11 351.72 491.08 384.12 491.08C416.52 491.08 442.79 438.11 442.79 372.77C442.79 354.23 446.26 338.24 450.96 325.05C510.4 302.5 558.96 252.15 558.96 193.65H558.95Z" fill="white" stroke="black" stroke-width="20" stroke-miterlimit="10"/>
<path d="M402.43 264.56C402.43 281.06 394.22 294.56 384.18 294.56C374.14 294.56 365.93 281.06 365.93 264.56V185.29C365.93 168.79 374.14 155.29 384.18 155.29C394.22 155.29 402.43 168.79 402.43 185.29V264.56Z" fill="black"/>
<path d="M259.65 198.97C264.71 209.96 270.13 221.42 279.79 228.69C288.89 235.54 300.53 237.76 311.64 240.27C344.71 247.73 377.72 259.85 402.89 282.55C428.06 305.25 435.84 335.2 437.38 373.39" fill="white"/>
<path d="M255.76 201.24C259.65 209.68 263.7 218.07 269.71 225.25C276.02 232.79 284.49 237.5 293.77 240.45C303.05 243.4 312.05 244.84 321.14 247.19C330.23 249.54 339.39 252.34 348.26 255.66C350.44 256.48 352.61 257.33 354.76 258.21C355.02 258.32 355.28 258.42 355.54 258.53C355.64 258.57 356.45 258.91 355.98 258.71C355.51 258.51 356.31 258.85 356.41 258.9C356.67 259.01 356.93 259.12 357.19 259.23C358.35 259.73 359.51 260.25 360.66 260.77C364.94 262.72 369.14 264.82 373.25 267.1C377.36 269.38 381.23 271.73 385.06 274.31C387.03 275.64 388.97 277.01 390.87 278.43C391.32 278.76 391.76 279.1 392.21 279.44C392.91 279.97 392.44 279.62 392.3 279.51C392.52 279.68 392.74 279.85 392.96 280.03C393.95 280.81 394.93 281.61 395.9 282.41C399.15 285.12 402.27 287.98 405.18 291.05C406.56 292.51 407.9 294.01 409.18 295.55C409.78 296.27 410.36 297 410.94 297.73C410.32 296.95 411.11 297.95 411.29 298.2C411.6 298.62 411.91 299.03 412.22 299.45C414.47 302.55 416.52 305.8 418.37 309.16C419.3 310.86 420.18 312.59 421.01 314.35C421.4 315.18 421.78 316.01 422.15 316.85C422.27 317.12 422.8 318.38 422.37 317.36C422.57 317.84 422.77 318.32 422.96 318.8C425.92 326.18 428.03 333.88 429.54 341.68C429.93 343.69 430.28 345.72 430.59 347.75C430.75 348.75 430.89 349.75 431.03 350.75C431.15 351.62 431.04 350.86 431.03 350.69C431.06 350.94 431.1 351.2 431.13 351.45C431.21 352.09 431.29 352.73 431.37 353.36C431.89 357.76 432.27 362.17 432.55 366.59C432.69 368.85 432.8 371.11 432.9 373.38C433 375.65 434.9 377.99 437.4 377.88C439.76 377.77 442 375.9 441.9 373.38C441.2 356.11 439.31 338.56 433.76 322.11C428.57 306.75 420.1 292.74 408.38 281.48C394.73 268.37 378.12 258.44 360.78 251.04C351.77 247.2 342.56 243.92 333.16 241.15C323.76 238.38 314.76 236.42 305.5 234.25C300.95 233.19 296.42 232 292.06 230.31C291.8 230.21 291.55 230.11 291.29 230.01C291.18 229.97 290.38 229.63 290.87 229.84C291.36 230.05 290.57 229.7 290.46 229.66C290.21 229.55 289.96 229.43 289.71 229.32C288.65 228.83 287.61 228.3 286.59 227.73C285.63 227.19 284.69 226.62 283.78 226C283.32 225.69 282.87 225.37 282.42 225.05C281.7 224.53 282.21 224.9 282.36 225.01C282.04 224.76 281.73 224.51 281.43 224.25C279.7 222.8 278.1 221.19 276.62 219.48C276.27 219.08 275.93 218.67 275.6 218.26C275.43 218.05 275.27 217.84 275.1 217.64C275.21 217.78 275.59 218.29 275.07 217.6C274.35 216.63 273.66 215.65 272.99 214.65C270.49 210.87 268.37 206.84 266.4 202.76C265.43 200.75 264.49 198.72 263.56 196.7C262.57 194.55 259.31 193.86 257.4 195.09C255.19 196.52 254.73 198.95 255.79 201.25L255.76 201.24Z" fill="black"/>
<path d="M403.66 275.44C412.51 266.6 422.04 257.61 433.56 255.12C438.7 254.01 443.99 254.27 449.19 253.71C464.21 252.09 478.26 243.58 489.49 231.98C500.72 220.38 509.34 205.8 516.64 190.61" fill="white"/>
<path d="M406.85 278.62C410.28 275.19 413.75 271.79 417.49 268.69C417.98 268.28 418.47 267.88 418.97 267.49C419.05 267.42 419.75 266.88 419.34 267.19C418.93 267.5 419.63 266.97 419.72 266.91C420.72 266.16 421.74 265.44 422.78 264.76C424.71 263.49 426.72 262.34 428.82 261.38C428.93 261.33 429.7 260.98 429.2 261.2C428.7 261.42 429.47 261.09 429.59 261.04C430.09 260.84 430.59 260.66 431.09 260.48C432.23 260.09 433.38 259.76 434.56 259.5C435.17 259.36 435.78 259.25 436.4 259.15C436.49 259.13 437.46 259 436.98 259.06C436.5 259.12 437.47 259.01 437.56 259C438.98 258.85 440.4 258.76 441.83 258.68C447.02 258.41 452.17 258.08 457.24 256.82C476.61 252.01 492.07 237.84 503.54 222.09C510.18 212.96 515.65 203.03 520.54 192.88C521.56 190.76 521.19 187.92 518.93 186.72C516.92 185.66 513.86 186.07 512.77 188.33C508.44 197.32 503.66 206.12 498.02 214.36C497.37 215.31 496.7 216.26 496.02 217.2C495.68 217.67 495.34 218.13 495 218.59C494.83 218.82 494.66 219.05 494.48 219.28C494.46 219.3 493.63 220.39 494.14 219.74C492.66 221.66 491.11 223.53 489.5 225.35C486.32 228.95 482.89 232.33 479.2 235.4C478.77 235.76 478.34 236.11 477.9 236.46C477.68 236.63 477.46 236.81 477.24 236.98C477.39 236.86 477.86 236.51 477.16 237.04C476.16 237.79 475.15 238.52 474.12 239.23C472.19 240.55 470.2 241.77 468.16 242.89C467.21 243.41 466.24 243.91 465.27 244.39C464.78 244.63 464.29 244.86 463.8 245.08C463.55 245.19 463.31 245.3 463.06 245.41C461.84 245.95 463.88 245.09 462.65 245.59C460.54 246.44 458.4 247.19 456.21 247.79C454.02 248.39 451.96 248.8 449.79 249.14C449.02 249.26 450.88 249.04 449.61 249.16C449.32 249.19 449.03 249.22 448.74 249.25C448.11 249.31 447.48 249.36 446.84 249.41C445.49 249.5 444.14 249.56 442.8 249.63C437.5 249.89 432.2 250.39 427.22 252.36C416.7 256.52 408.39 264.38 400.5 272.25C398.83 273.92 398.71 276.97 400.5 278.61C402.29 280.25 405.08 280.39 406.86 278.61L406.85 278.62Z" fill="black"/>
<path d="M306.271 212.41C309.401 220.82 312.621 229.39 318.221 236.4C323.831 243.41 330.901 245.35 341.291 248.19" fill="white"/>
<path d="M301.93 213.6C304.8 221.32 307.7 229.23 312.4 236.06C314.62 239.29 317.08 242.11 320.2 244.49C322.8 246.47 325.72 247.85 328.75 249.03C332.44 250.47 336.28 251.48 340.09 252.52C342.36 253.14 345.09 251.75 345.63 249.38C346.17 247.01 344.92 244.51 342.49 243.84C339.28 242.96 336.06 242.1 332.91 241C332.21 240.75 331.52 240.5 330.83 240.22C330.8 240.21 330.38 240.02 330.37 240.03C330.39 240.01 331.15 240.39 330.68 240.16C330.34 239.99 329.98 239.85 329.64 239.68C328.39 239.08 327.18 238.41 326.03 237.63C325.72 237.42 325.43 237.19 325.12 236.99C324.7 236.71 325.39 237.21 325.4 237.21C325.27 237.14 325.14 237 325.03 236.91C324.49 236.45 323.96 235.99 323.46 235.49C322.96 234.99 322.44 234.44 321.96 233.88C321.72 233.6 321.5 233.32 321.27 233.03C320.95 232.63 321.26 233.01 321.31 233.08C321.14 232.85 320.97 232.62 320.8 232.38C318.56 229.28 316.72 225.91 315.12 222.44C314.91 221.98 314.7 221.52 314.49 221.05C314.4 220.85 314.31 220.65 314.23 220.45C314.2 220.38 313.87 219.61 314.03 219.99C314.21 220.4 313.93 219.74 313.92 219.72C313.81 219.45 313.7 219.18 313.59 218.91C313.37 218.37 313.15 217.83 312.94 217.29C312.14 215.26 311.38 213.22 310.62 211.18C309.8 208.98 307.54 207.24 305.08 208.04C302.93 208.74 301.06 211.21 301.94 213.58L301.93 213.6Z" fill="black"/>
<path d="M445.74 253.37C457.35 242.56 465.57 228.16 468.96 212.67L445.74 253.37Z" fill="white"/>
<path d="M448.92 256.55C461.06 245.19 469.7 230.1 473.3 213.87C473.81 211.58 472.61 208.89 470.16 208.33C467.88 207.81 465.17 209.02 464.62 211.47C463.77 215.31 462.64 219.08 461.23 222.75C461.06 223.19 460.88 223.63 460.71 224.07C460.63 224.26 460.56 224.45 460.48 224.63C460.67 224.18 460.66 224.2 460.46 224.68C460.08 225.55 459.69 226.41 459.28 227.27C458.43 229.04 457.52 230.79 456.55 232.49C455.58 234.19 454.54 235.87 453.44 237.5C452.91 238.29 452.37 239.06 451.81 239.83C451.57 240.16 451.33 240.49 451.09 240.81C450.93 241.03 450.76 241.24 450.6 241.46C450.89 241.09 450.87 241.1 450.55 241.51C448.07 244.57 445.44 247.48 442.56 250.17C440.84 251.78 440.81 254.93 442.56 256.53C444.41 258.22 447.09 258.25 448.92 256.53V256.55Z" fill="black"/>
<path d="M442.7 487.66C383.25 574.58 384.04 664.37 384.04 664.37C384.04 664.37 476.5 668.02 548.63 562.59C598.38 489.88 606.64 342.58 606.64 342.58C606.64 342.58 507.71 392.6 442.69 487.65L442.7 487.66Z" fill="white" stroke="black" stroke-width="20" stroke-miterlimit="10" stroke-linecap="round"/>
<path d="M326.53 487.66C385.98 574.58 385.19 664.37 385.19 664.37C385.19 664.37 292.73 668.02 220.6 562.59C170.85 489.88 162.59 342.58 162.59 342.58C162.59 342.58 261.52 392.6 326.54 487.65L326.53 487.66Z" fill="white" stroke="black" stroke-width="20" stroke-miterlimit="10" stroke-linecap="round"/>
<path d="M597.35 624.77C690.26 563.97 725.62 476.14 725.62 476.14C725.62 476.14 636.98 435.4 524.26 509.13C446.51 559.99 379.19 700.22 379.19 700.22C379.19 700.22 495.74 691.26 597.35 624.77Z" fill="white" stroke="black" stroke-width="20" stroke-miterlimit="10" stroke-linecap="round"/>
<path d="M171.88 624.77C78.9699 563.97 43.6099 476.14 43.6099 476.14C43.6099 476.14 132.25 435.4 244.97 509.13C322.72 559.99 390.04 700.22 390.04 700.22C390.04 700.22 273.49 691.26 171.88 624.77Z" fill="white" stroke="black" stroke-width="20" stroke-miterlimit="10" stroke-linecap="round"/>
<path d="M752.34 765.15C752.34 765.15 713.32 690.52 573.46 684.46C471.18 680.02 394.69 729.62 394.69 729.62C394.69 729.62 396.86 583.56 573.46 576.38C812.12 566.68 752.34 765.15 752.34 765.15Z" fill="white" stroke="black" stroke-width="20" stroke-miterlimit="10" stroke-linecap="round"/>
<path d="M16.6598 765.15C16.6598 765.15 55.6798 690.52 195.54 684.46C297.82 680.02 374.31 729.62 374.31 729.62C374.31 729.62 372.14 583.56 195.54 576.38C-43.1202 566.68 16.6598 765.15 16.6598 765.15Z" fill="white" stroke="black" stroke-width="20" stroke-miterlimit="10" stroke-linecap="round"/>
</g>
<defs>
<clipPath id="clip0_404_7055">
<rect width="769" height="791.51" fill="white"/>
</clipPath>
</defs>
</svg>
